<?xml version="1.0" encoding="utf-8"?>
<!-- Generator: Adobe Illustrator 23.1.1, SVG Export Plug-In . SVG Version: 6.00 Build 0)  -->
<svg version="1.1" id="Layer_1" xmlns="http://www.w3.org/2000/svg" xmlns:xlink="http://www.w3.org/1999/xlink" x="0px" y="0px"
	 viewBox="0 0 582.2 173.4" style="enable-background:new 0 0 582.2 173.4;" xml:space="preserve">
<style type="text/css">
	.st0{fill:#879199;}
	.st1{fill:#3288B6;}
	.st2{fill:#004775;}
</style>
<g>
	<g>
		<path class="st0" d="M186.1,142.4v7.9h-3.2v-7.9l-9-14.8h3.5l7.3,12l7.3-12h3.2L186.1,142.4z"/>
		<path class="st0" d="M198.9,138.9c0-6.7,5.1-11.6,12.1-11.6c6.9,0,12.1,4.9,12.1,11.6c0,6.7-5.1,11.6-12.1,11.6
			C204,150.5,198.9,145.5,198.9,138.9z M219.8,138.9c0-5-3.8-8.8-8.8-8.8c-5.1,0-8.9,3.7-8.9,8.8c0,5,3.8,8.8,8.9,8.8
			C216.1,147.6,219.8,143.9,219.8,138.9z"/>
		<path class="st0" d="M231.1,140.4v-12.9h3.3v12.8c0,5,2.3,7.3,6.4,7.3s6.4-2.3,6.4-7.3v-12.8h3.2v12.9c0,6.6-3.6,10.1-9.6,10.1
			C234.8,150.5,231.1,147,231.1,140.4z"/>
		<path class="st0" d="M275.5,150.3l-4.9-7c-0.5,0-0.9,0.1-1.4,0.1h-5.6v6.9h-3.3v-22.8h8.9c5.9,0,9.5,3,9.5,7.9
			c0,3.5-1.8,6.1-5,7.2l5.4,7.6H275.5z M275.4,135.4c0-3.3-2.2-5.1-6.3-5.1h-5.5v10.2h5.5C273.2,140.6,275.4,138.7,275.4,135.4z"/>
		<path class="st0" d="M299.2,127.5h3.3v22.8h-3.3V127.5z"/>
		<path class="st0" d="M317.1,130.3h-7.8v-2.8h18.8v2.8h-7.8v19.9h-3.2V130.3z"/>
		<path class="st0" d="M344.8,147.7l1.2-2.5c1.7,1.5,4.6,2.6,7.5,2.6c3.9,0,5.6-1.5,5.6-3.5c0-5.6-13.8-2-13.8-10.5
			c0-3.5,2.7-6.5,8.7-6.5c2.7,0,5.4,0.7,7.3,2l-1.1,2.6c-2-1.3-4.2-1.9-6.2-1.9c-3.9,0-5.5,1.6-5.5,3.6c0,5.6,13.8,2.1,13.8,10.4
			c0,3.5-2.8,6.5-8.8,6.5C350,150.5,346.6,149.4,344.8,147.7z"/>
		<path class="st0" d="M368.5,138.9c0-6.7,5.1-11.6,12.1-11.6c6.9,0,12.1,4.9,12.1,11.6c0,6.7-5.1,11.6-12.1,11.6
			C373.6,150.5,368.5,145.5,368.5,138.9z M389.4,138.9c0-5-3.8-8.8-8.8-8.8c-5.1,0-8.9,3.7-8.9,8.8c0,5,3.8,8.8,8.9,8.8
			C385.7,147.6,389.4,143.9,389.4,138.9z"/>
		<path class="st0" d="M400.9,127.5h3.3v19.9h12.3v2.8h-15.6V127.5z"/>
		<path class="st0" d="M422.9,140.4v-12.9h3.3v12.8c0,5,2.3,7.3,6.4,7.3c4.1,0,6.4-2.3,6.4-7.3v-12.8h3.2v12.9
			c0,6.6-3.6,10.1-9.6,10.1C426.5,150.5,422.9,147,422.9,140.4z"/>
		<path class="st0" d="M456.2,130.3h-7.8v-2.8h18.8v2.8h-7.8v19.9h-3.2V130.3z"/>
		<path class="st0" d="M474,127.5h3.3v22.8H474V127.5z"/>
		<path class="st0" d="M485.5,138.9c0-6.7,5.1-11.6,12.1-11.6c6.9,0,12.1,4.9,12.1,11.6c0,6.7-5.1,11.6-12.1,11.6
			C490.6,150.5,485.5,145.5,485.5,138.9z M506.4,138.9c0-5-3.8-8.8-8.8-8.8c-5.1,0-8.9,3.7-8.9,8.8c0,5,3.8,8.8,8.9,8.8
			C502.7,147.6,506.4,143.9,506.4,138.9z"/>
		<path class="st0" d="M537.5,127.5v22.8h-2.7l-13.7-17v17h-3.3v-22.8h2.7l13.7,17v-17H537.5z"/>
	</g>
</g>
<path class="st1" d="M129.6,59.8l0-1l-0.8-0.6c-0.4-0.4-7.8-6.3-23.2-9.8v-9c3.1-1,5.4-3.9,5.4-7.3c0-4.2-3.4-7.7-7.7-7.7
	c-4.2,0-7.7,3.4-7.7,7.7c0,3.5,2.3,6.4,5.4,7.3v8.1c-6-1.1-13-1.7-21.1-1.6V32.8c3.1-1,5.4-3.9,5.4-7.3c0-4.2-3.4-7.7-7.7-7.7
	c-4.2,0-7.7,3.4-7.7,7.7c0,3.5,2.3,6.4,5.4,7.3V46C43.3,47.3,27.4,57.6,26.8,58l-0.8,0.6l-0.1,1c-0.1,0.7-2.3,16.9,8.8,44.2
	c7.3,18,22.5,31.9,32.5,39.5l0-52.4L57,79.3v-6.5c3.1-1,5.4-3.9,5.4-7.3c0-4.2-3.4-7.7-7.7-7.7S47,61.2,47,65.5
	c0,3.5,2.3,6.4,5.4,7.3V81l10.1,11.5v41.2c-8.7-7.7-18.6-18.6-23.9-31.6c-9.1-22.3-8.9-37-8.6-40.9c3.7-2.1,18.7-9.7,45.4-10.8
	l0,98.7c0.5,0.3,1,0.6,1.1,0.7l1.2,0.7l1.2-0.7c0.1-0.1,0.6-0.4,1-0.7l0-98.8c8.2-0.1,15.2,0.7,21.1,1.7v4.5L88.4,68.8l0,74.1
	c8.3-6.8,21.2-19.1,29.2-35.4C130.2,81.7,129.6,60.7,129.6,59.8z M51.5,65.5c0-1.8,1.4-3.2,3.2-3.2c1.8,0,3.2,1.4,3.2,3.2
	c0,1.8-1.4,3.2-3.2,3.2C52.9,68.7,51.5,67.2,51.5,65.5z M77.8,28.6c-1.8,0-3.2-1.4-3.2-3.2c0-1.8,1.4-3.2,3.2-3.2
	c1.8,0,3.2,1.4,3.2,3.2C81,27.2,79.5,28.6,77.8,28.6z M100.1,32.1c0-1.8,1.4-3.2,3.2-3.2c1.8,0,3.2,1.4,3.2,3.2
	c0,1.8-1.4,3.2-3.2,3.2C101.5,35.3,100.1,33.9,100.1,32.1z M113.5,105.5c-5.5,11.1-13.5,20.5-20.7,27.3V70.7l12.7-12.2V53
	c3.5,0.8,6.5,1.8,8.9,2.7c5.7,2.1,9.2,4.3,10.7,5.3C125.1,65.6,124.2,83.9,113.5,105.5z"/>
<g>
	<g>
		<path class="st2" d="M531.6,54.9c-12.9-3.3-16.1-4.9-16.1-9.8v-0.2c0-3.6,3.3-6.5,9.6-6.5c5.5,0,11.3,2.2,17.1,5.8
			c1.3,0.8,3,0.4,3.9-0.8c1.5-2.2,3.8-5.5,5.3-7.7c0.9-1.3,0.6-3.1-0.7-4c-7.1-5-15.6-7.8-25.4-7.8c-15.2,0-26,8.9-26,22.4v0.2
			c0,14.8,9.7,18.9,24.7,22.8c12.4,3.2,15,5.3,15,9.5V79c0,2.7-1.6,4.8-4.4,5.9c-1.1,0.5-1.8,1.5-1.8,2.7v9.1c0,1.9,1.7,3.3,3.5,2.9
			c11.5-2.4,19-10.2,19-22.2v-0.2C555.2,64.2,546.7,58.8,531.6,54.9z"/>
		<path class="st2" d="M519.9,84.8c-4.1-1.2-7.9-3.3-11.6-6c-1.3-1-3.2-0.8-4.3,0.5l-5.1,6.1c-1.8,2.1-1.5,4.2,0,5.3
			c5.8,4.5,12.5,7.4,19.3,8.8c2,0.4,3.8-1.1,3.8-3.1v-8.5C522.1,86.5,521.3,85.2,519.9,84.8z"/>
	</g>
	<g>
		<path class="st2" d="M362.7,84.9h-34.1c-1.7,0-3.2-1.4-3.2-3.2v-9.3c0,0,0,0,0-0.1V51.6c0,0,0,0,0-0.1v-8.8c0-1.7,1.4-3.2,3.2-3.2
			h33.5c1.7,0,3.2-1.4,3.2-3.2v-8.2c0-1.7-1.4-3.2-3.2-3.2h-49.8c-1.7,0-3.2,1.4-3.2,3.2v68.1c0,1.7,1.4,3.2,3.2,3.2h50.3
			c1.7,0,3.2-1.4,3.2-3.2V88C365.9,86.3,364.5,84.9,362.7,84.9z"/>
		<path class="st2" d="M360.6,66.2v-8.5c0-1.7-1.4-3-3-3h-18.4c-1.7,0-3,1.4-3,3v8.5c0,1.7,1.4,3,3,3h18.4
			C359.2,69.2,360.6,67.9,360.6,66.2z"/>
	</g>
	<g>
		<path class="st2" d="M414.5,53.5c1.4,0,2.7-0.8,3.3-2c3.4-7.5,10.5-12.6,19.3-12.6c7.2,0,12.6,3,16.4,6.1c1.5,1.3,3.3,1.4,4.7,0
			l6.4-7.4c1-1.3,1.3-3.2-1-5.1c-7.3-5.9-12.6-8.7-26.3-8.7c-17.7,0-31.3,10.4-36.5,25c-0.8,2.3,1,4.8,3.5,4.8H414.5z"/>
		<path class="st2" d="M465.2,85.4c-1.7-1.8-4.9-5.2-6.8-6.9c-1.3-1.2-2.6-1.3-4,0c-4.1,3.8-6.3,5.3-11.4,6.4
			c-12.4,2.8-24.2-5.7-26.8-17.7c-0.4-1.8-2-3.2-3.9-3.2h-9.3c-2.4,0-4.4,2.2-4,4.6c2.8,18.3,17.9,32,37.6,32
			c14.1,0,20.6-4.2,28.6-11.3C466.7,88,466.1,86.4,465.2,85.4z"/>
	</g>
	<g>
		<path class="st2" d="M216.9,40.1h55.4c1.7,0,3.1-1.4,3.1-3.2v-8.7c0-1.8-1.4-3.2-3.2-3.2h-55.3c-1.8,0-3.2,1.4-3.2,3.2v8.7
			C213.7,38.7,215.1,40.1,216.9,40.1z"/>
		<path class="st2" d="M236.4,53.8v42.6c0,1.7,1.4,3,3,3h10.3c1.7,0,3-1.4,3-3V53.8c0-1.7-1.4-3-3-3h-10.3
			C237.7,50.7,236.4,52.1,236.4,53.8z"/>
	</g>
	<g>
		<path class="st2" d="M162.8,53.8v42.6c0,1.7,1.4,3.1,3.1,3.1h10.3c1.7,0,3.1-1.4,3.1-3.1V53.8c0-1.7-1.4-3.1-3.1-3.1h-10.3
			C164.2,50.7,162.8,52.1,162.8,53.8z"/>
		<path class="st2" d="M179.2,37v-8.9c0-1.7-1.4-3.1-3.1-3.1h-10.2c-1.7,0-3.1,1.4-3.1,3.1V37c0,1.7,1.4,3.1,3.1,3.1h10.2
			C177.8,40.1,179.2,38.7,179.2,37z"/>
	</g>
</g>
</svg>
