<?xml version="1.0" encoding="utf-8"?>
<!-- Generator: Adobe Illustrator 23.1.1, SVG Export Plug-In . SVG Version: 6.00 Build 0)  -->
<svg version="1.1" id="Layer_1" xmlns="http://www.w3.org/2000/svg" xmlns:xlink="http://www.w3.org/1999/xlink" x="0px" y="0px"
	 viewBox="0 0 182.8 216" style="enable-background:new 0 0 182.8 216;" xml:space="preserve">
<style type="text/css">
	.st0{fill:#326089;}
</style>
<path class="st0" d="M166.2,72.1l-0.1-1.5l-1.2-0.9c-0.7-0.5-11.6-9.2-34.3-14.4V42c4.6-1.4,8-5.7,8-10.8c0-6.2-5.1-11.3-11.3-11.3
	c-6.2,0-11.3,5.1-11.3,11.3c0,5.1,3.4,9.4,8,10.8V54c-8.8-1.6-19.2-2.5-31.1-2.4V32.2c4.6-1.4,8-5.7,8-10.8
	c0-6.2-5.1-11.3-11.3-11.3c-6.2,0-11.3,5.1-11.3,11.3c0,5.1,3.4,9.4,8,10.8v19.5c-47.5,1.9-70.9,17.1-71.9,17.8l-1.2,0.8L13,71.8
	c-0.1,1-3.4,24.9,13,65.2c10.8,26.6,33.3,47,48,58.2l0-77.4l-15-16.9v-9.6c4.6-1.4,8-5.7,8-10.8c0-6.2-5.1-11.3-11.3-11.3
	s-11.3,5.1-11.3,11.3c0,5.1,3.4,9.4,8,10.8v12.1l15,16.9v60.8c-12.8-11.3-27.4-27.4-35.2-46.6c-13.4-32.9-13.1-54.6-12.7-60.3
	c5.4-3.1,27.6-14.3,67-15.9l0,145.6c0.7,0.4,1.4,0.9,1.6,1l1.7,1l1.7-1.1c0.2-0.1,0.8-0.5,1.5-1l0-145.7c12.1-0.1,22.5,1,31.1,2.6
	v6.6l-18.7,18l0,109.3c12.3-10,31.3-28.2,43.1-52.2C167.2,104.5,166.2,73.4,166.2,72.1z M51,80.5c0-2.6,2.1-4.7,4.7-4.7
	c2.6,0,4.7,2.1,4.7,4.7c0,2.6-2.1,4.7-4.7,4.7C53.1,85.2,51,83,51,80.5z M89.7,26.1c-2.6,0-4.7-2.1-4.7-4.7s2.1-4.7,4.7-4.7
	c2.6,0,4.7,2.1,4.7,4.7S92.3,26.1,89.7,26.1z M122.7,31.2c0-2.6,2.1-4.7,4.7-4.7s4.7,2.1,4.7,4.7s-2.1,4.7-4.7,4.7
	S122.7,33.8,122.7,31.2z M142.5,139.5c-8.1,16.4-19.9,30.2-30.5,40.3V88.1l18.7-18v-8.1c5.2,1.2,9.6,2.6,13.1,4
	c8.4,3.1,13.6,6.3,15.8,7.9C159.5,80.6,158.2,107.7,142.5,139.5z"/>
</svg>
