<svg width="1600" height="1000" viewBox="0 0 1600 1000" fill="none" xmlns="http://www.w3.org/2000/svg">
  <defs>
    <linearGradient id="bg" x1="0" y1="0" x2="1600" y2="1000" gradientUnits="userSpaceOnUse">
      <stop offset="0" stop-color="#0B1A28"/>
      <stop offset="0.55" stop-color="#0A1622"/>
      <stop offset="1" stop-color="#08121C"/>
    </linearGradient>
    <radialGradient id="glow" cx="0.78" cy="0.18" r="0.6">
      <stop offset="0" stop-color="#3288B6" stop-opacity="0.34"/>
      <stop offset="1" stop-color="#3288B6" stop-opacity="0"/>
    </radialGradient>
    <radialGradient id="glow2" cx="0.1" cy="0.92" r="0.55">
      <stop offset="0" stop-color="#1E5A7E" stop-opacity="0.30"/>
      <stop offset="1" stop-color="#1E5A7E" stop-opacity="0"/>
    </radialGradient>
    <linearGradient id="coreStroke" x1="0" y1="0" x2="0" y2="1">
      <stop offset="0" stop-color="#46C7E8"/>
      <stop offset="1" stop-color="#2C7AA6"/>
    </linearGradient>
    <pattern id="grid" width="48" height="48" patternUnits="userSpaceOnUse">
      <path d="M48 0H0V48" fill="none" stroke="#23425A" stroke-opacity="0.18" stroke-width="1"/>
    </pattern>
  </defs>

  <rect width="1600" height="1000" fill="url(#bg)"/>
  <rect width="1600" height="1000" fill="url(#grid)"/>
  <rect width="1600" height="1000" fill="url(#glow)"/>
  <rect width="1600" height="1000" fill="url(#glow2)"/>

  <path d="M0 250 L1600 120" stroke="#3288B6" stroke-opacity="0.10" stroke-width="2"/>
  <path d="M0 880 L1600 760" stroke="#3288B6" stroke-opacity="0.08" stroke-width="2"/>

  <!-- left content -->
  <g transform="translate(120,150)">
    <text x="0" y="0" font-family="Space Grotesk, Arial, sans-serif" font-size="34" font-weight="600" letter-spacing="6" fill="#E6EEF5">ITECS</text>
    <text x="118" y="0" font-family="IBM Plex Mono, monospace" font-size="18" letter-spacing="2" fill="#6F8597">· Dallas MSP since 2002</text>

    <g transform="translate(0,70)">
      <rect x="0" y="0" width="13" height="13" transform="rotate(45 6.5 6.5)" fill="#46C7E8"/>
      <text x="30" y="12" font-family="IBM Plex Mono, monospace" font-size="20" letter-spacing="5" fill="#46C7E8">PRIVATE PROPOSAL</text>
    </g>

    <text x="0" y="210" font-family="Space Grotesk, Arial, sans-serif" font-size="92" font-weight="500" letter-spacing="-3" fill="#F2F7FB">AI Adoption</text>
    <text x="0" y="318" font-family="Space Grotesk, Arial, sans-serif" font-size="92" font-weight="500" letter-spacing="-3" fill="#F2F7FB">&amp; Agents<tspan fill="#46C7E8">.</tspan></text>

    <text x="4" y="398" font-family="IBM Plex Sans, Arial, sans-serif" font-size="32" fill="#9FB4C4">Prepared for <tspan fill="#E6EEF5" font-weight="600">ARG Companies</tspan></text>

    <g transform="translate(0,470)" font-family="IBM Plex Mono, monospace">
      <g>
        <rect x="0" y="0" width="300" height="84" rx="10" fill="#0F2235" stroke="#27506C" stroke-opacity="0.7"/>
        <text x="24" y="40" font-size="40" font-weight="600" fill="#46C7E8" font-family="Space Grotesk, Arial, sans-serif">2 tracks</text>
        <text x="24" y="66" font-size="15" letter-spacing="2" fill="#7E94A6">ADOPTION + AGENTS</text>
      </g>
      <g transform="translate(330,0)">
        <rect x="0" y="0" width="300" height="84" rx="10" fill="#0F2235" stroke="#27506C" stroke-opacity="0.7"/>
        <text x="24" y="40" font-size="40" font-weight="600" fill="#46C7E8" font-family="Space Grotesk, Arial, sans-serif">13</text>
        <text x="24" y="66" font-size="15" letter-spacing="2" fill="#7E94A6">AGENT OPPORTUNITIES</text>
      </g>
    </g>
  </g>

  <!-- right AI core emblem -->
  <g transform="translate(1140,300)">
    <circle cx="160" cy="160" r="240" fill="#0E2233" stroke="#1E4660" stroke-opacity="0.5" stroke-width="2"/>
    <circle cx="160" cy="160" r="190" fill="none" stroke="#2C7AA6" stroke-opacity="0.35" stroke-width="1.5" stroke-dasharray="3 9"/>
    <!-- hex AI core -->
    <path d="M160 44 L268 106 V230 L160 292 L52 230 V106 Z"
          fill="#0C1C2A" stroke="url(#coreStroke)" stroke-width="5"/>
    <!-- neural node motif -->
    <circle cx="160" cy="168" r="22" fill="#46C7E8" fill-opacity="0.18" stroke="#46C7E8" stroke-width="3"/>
    <g stroke="#46C7E8" stroke-width="3" stroke-linecap="round">
      <line x1="160" y1="168" x2="108" y2="116"/>
      <line x1="160" y1="168" x2="212" y2="116"/>
      <line x1="160" y1="168" x2="104" y2="220"/>
      <line x1="160" y1="168" x2="216" y2="220"/>
    </g>
    <g fill="#9FE3F5">
      <circle cx="108" cy="116" r="9"/>
      <circle cx="212" cy="116" r="9"/>
      <circle cx="104" cy="220" r="9"/>
      <circle cx="216" cy="220" r="9"/>
    </g>
    <text x="160" y="408" text-anchor="middle" font-family="IBM Plex Mono, monospace" font-size="19" letter-spacing="4" fill="#7E94A6">GOVERNED AI · HUMAN-IN-THE-LOOP</text>
  </g>

  <!-- footer strip -->
  <g transform="translate(120,902)">
    <text x="0" y="0" font-family="IBM Plex Sans, Arial, sans-serif" font-size="22" fill="#7E94A6">Claude · ChatGPT · Microsoft 365 Copilot · ITECS AI Consulting &amp; Agent Engineering</text>
  </g>
</svg>
