<svg width="184" height="31" viewBox="0 0 184 31" fill="none" xmlns="http://www.w3.org/2000/svg">
<g clip-path="url(#clip0_244_23852)">
<path d="M14.9479 0H10.79V24.8602H14.9479V0Z" fill="#030303"/>
<path fill-rule="evenodd" clip-rule="evenodd" d="M15.96 30.8553L20.1146 28.2808V6.75778C18.8829 5.84444 17.4639 5.21574 15.96 4.91699V30.8553Z" fill="#030303"/>
<path fill-rule="evenodd" clip-rule="evenodd" d="M5.61816 28.294L9.77602 30.8685V4.93018C8.27191 5.22441 6.85183 5.84871 5.61816 6.75809V28.294Z" fill="#030303"/>
<path fill-rule="evenodd" clip-rule="evenodd" d="M21.1191 1.18115V27.8307L23.05 26.6335C23.7414 26.1787 24.307 25.557 24.6946 24.8257C25.0821 24.0945 25.2791 23.2774 25.2673 22.4499V9.86373C25.277 6.23365 21.1191 1.18115 21.1191 1.18115Z" fill="#030303"/>
<path fill-rule="evenodd" clip-rule="evenodd" d="M0.469326 22.4403C0.456658 23.2679 0.653259 24.0854 1.04089 24.8167C1.42851 25.5481 1.99461 26.1697 2.68663 26.6239L4.61752 27.821V1.18115C4.61752 1.18115 0.469326 6.23365 0.469326 9.86373V22.4403Z" fill="#030303"/>
<path fill-rule="evenodd" clip-rule="evenodd" d="M124.911 25.1531V5.54814L127.91 4.28662V25.1531H124.911ZM120.186 16.9404C120.202 16.4115 120.104 15.8853 119.899 15.3974C119.694 14.9095 119.387 14.4711 118.999 14.1116C118.229 13.41 117.218 13.032 116.177 13.0561C115.146 13.0275 114.145 13.4068 113.393 14.1116C112.623 14.8589 112.163 15.869 112.106 16.9404H120.186ZM116.119 25.388C114.01 25.388 112.293 24.7101 110.97 23.3542C109.646 21.9983 108.988 20.1993 108.997 17.9573C108.997 15.7175 109.665 13.9228 111.002 12.5734C112.338 11.2239 114.067 10.5513 116.186 10.5556C118.308 10.5556 120.024 11.1992 121.335 12.4865C122.646 13.7737 123.306 15.4643 123.314 17.5583C123.317 18.0291 123.281 18.4994 123.208 18.9646H112.073C112.09 20.0404 112.531 21.0661 113.3 21.8191C114.06 22.5276 115.07 22.907 116.109 22.8747C117.746 22.8747 118.898 22.2053 119.565 20.8665H122.812C122.388 22.1854 121.549 23.332 120.421 24.1362C119.159 25.0054 117.65 25.4444 116.119 25.388ZM97.2506 10.7905V13.0432C98.2161 11.3762 99.764 10.5427 101.894 10.5427C102.644 10.518 103.39 10.6481 104.086 10.925C104.783 11.2019 105.415 11.6195 105.943 12.1518C107.016 13.2245 107.552 14.7263 107.552 16.6572V25.1531H104.572V17.1238C104.572 15.8366 104.25 14.8507 103.606 14.1663C103.26 13.8162 102.844 13.5434 102.385 13.3659C101.925 13.1884 101.434 13.1102 100.942 13.1365C100.445 13.1073 99.9468 13.1834 99.481 13.3597C99.0152 13.5361 98.5918 13.8088 98.2386 14.1599C97.58 14.8443 97.2506 15.8301 97.2506 17.1174V25.1531H94.2417V10.7905H97.2506ZM88.6485 25.1531V10.7905H91.6575V25.1531H88.6485ZM86.4698 13.2138H82.9299V21.1626C82.9097 21.3722 82.9333 21.5837 82.9992 21.7837C83.0652 21.9837 83.172 22.1678 83.3128 22.3244C83.5671 22.5593 84.0015 22.6751 84.6194 22.6751H86.4666V25.1531H84.0916C81.3026 25.1531 79.908 23.8229 79.908 21.1626V8.47666L82.9427 7.21836V10.7905H86.4827L86.4698 13.2138ZM68.2261 10.7905V13.0432C69.183 11.3848 70.7341 10.5556 72.8796 10.5556C73.6291 10.5318 74.3756 10.6623 75.0726 10.9391C75.7696 11.2159 76.4022 11.6331 76.9312 12.1647C78.0039 13.2374 78.5403 14.7392 78.5403 16.6701V25.1531H75.5571V17.1238C75.5571 15.8366 75.2353 14.8507 74.5916 14.1663C74.2454 13.8162 73.829 13.5434 73.3697 13.3659C72.9104 13.1884 72.4187 13.1102 71.927 13.1365C71.4277 13.1055 70.9274 13.1807 70.4592 13.3571C69.9911 13.5334 69.5656 13.8071 69.2109 14.1599C68.5522 14.8443 68.2218 15.8301 68.2197 17.1174V25.1531H65.2139V10.7905H68.2261ZM60.5026 16.9404C60.518 16.4115 60.42 15.8853 60.2152 15.3974C60.0103 14.9095 59.7034 14.4711 59.3151 14.1116C58.5385 13.4038 57.5173 13.0253 56.467 13.0561C55.4363 13.0275 54.4359 13.4068 53.6833 14.1116C52.912 14.8579 52.4521 15.8687 52.396 16.9404H60.5026ZM56.4219 25.388C54.3108 25.388 52.5945 24.7101 51.2729 23.3542C49.9513 21.9983 49.2927 20.1993 49.297 17.9573C49.297 15.7175 49.9653 13.9228 51.3019 12.5734C52.6385 11.2239 54.3666 10.5513 56.4863 10.5556C58.606 10.5556 60.3223 11.1992 61.6354 12.4865C62.9484 13.7737 63.6081 15.4643 63.6145 17.5583C63.617 18.0291 63.5814 18.4994 63.5083 18.9646H52.3735C52.39 20.0412 52.832 21.0674 53.6028 21.8191C54.3628 22.5288 55.373 22.9084 56.4123 22.8747C58.0471 22.8747 59.1992 22.2053 59.8686 20.8665H63.1125C62.6881 22.1854 61.8496 23.332 60.7214 24.1362C59.4601 25.0049 57.9524 25.4439 56.4219 25.388ZM41.4286 9.22648C40.6428 9.19122 39.8693 9.43012 39.2402 9.9023C38.9548 10.1414 38.7296 10.4442 38.5826 10.7863C38.4356 11.1284 38.3709 11.5002 38.3939 11.8718C38.3769 12.2598 38.4619 12.6455 38.6403 12.9905C38.8187 13.3355 39.0843 13.6277 39.4108 13.8381C40.1493 14.3197 40.9728 14.6561 41.8373 14.8293C42.7856 15.0438 43.7349 15.283 44.6853 15.5469C45.6173 15.8117 46.4553 16.335 47.1022 17.0562C47.7673 17.7836 48.1009 18.8176 48.103 20.1585C48.1052 21.4994 47.5334 22.6977 46.3877 23.7532C45.2442 24.8152 43.7145 25.3516 41.7987 25.3623C39.8828 25.373 38.3263 24.9289 37.1291 24.03C36.5492 23.6137 36.0816 23.0601 35.7682 22.4187C35.4548 21.7773 35.3054 21.0682 35.3334 20.3549H38.5516C38.5881 21.0834 38.9107 21.7681 39.4494 22.26C39.9772 22.7277 40.7517 22.9616 41.7729 22.9616C42.6468 23.0109 43.5076 22.732 44.1865 22.1795C44.6815 21.7475 44.9925 21.1425 45.0559 20.4886C45.1193 19.8347 44.9303 19.1812 44.5277 18.6621C44.1465 18.2477 43.6657 17.9375 43.131 17.761C42.5125 17.5489 41.883 17.3705 41.2451 17.2268C40.5586 17.0723 39.8678 16.89 39.1727 16.6797C38.5105 16.4852 37.8733 16.2141 37.2739 15.872C36.6846 15.5252 36.2006 15.0246 35.874 14.4238C35.4936 13.7076 35.3072 12.9044 35.3334 12.0939C35.309 11.3672 35.4522 10.6447 35.7519 9.98229C36.0515 9.31987 36.4997 8.73532 37.0615 8.27391C38.2136 7.30847 39.709 6.82574 41.5476 6.82574C43.3863 6.82574 44.8548 7.2323 45.9533 8.04542C47.0539 8.88 47.6654 10.0879 47.7876 11.6691H44.4633C44.402 10.9922 44.0801 10.3656 43.5654 9.92161C42.9655 9.43017 42.2028 9.18207 41.4286 9.22648Z" fill="#030303"/>
<path fill-rule="evenodd" clip-rule="evenodd" d="M171.951 11.6078C170.966 11.5952 169.991 11.8157 169.107 12.2514C168.234 12.6912 167.507 13.3727 167.012 14.2145C166.448 15.206 166.161 16.3309 166.181 17.4713H177.467C177.569 16.3405 177.34 15.2045 176.808 14.2016C176.338 13.3529 175.621 12.668 174.751 12.2386C173.879 11.8144 172.921 11.5985 171.951 11.6078ZM171.9 24.0653C173.196 24.1094 174.472 23.7323 175.537 22.9904C176.017 22.6475 176.424 22.2111 176.732 21.7074C177.04 21.2036 177.243 20.6428 177.329 20.0587H178.568C178.341 21.4953 177.572 22.79 176.418 23.6759C175.251 24.5898 173.762 25.0468 171.951 25.0468C170.699 25.0707 169.461 24.7726 168.357 24.1811C167.308 23.606 166.449 22.7398 165.882 21.687C165.258 20.4975 164.95 19.1679 164.987 17.8253C164.956 16.4986 165.264 15.1859 165.882 14.0118C166.447 12.961 167.303 12.0952 168.347 11.5177C169.452 10.9262 170.689 10.6281 171.942 10.652C173.195 10.62 174.435 10.9185 175.537 11.5177C176.498 12.0473 177.292 12.8354 177.828 13.7929C178.342 14.7124 178.61 15.7487 178.607 16.8019C178.603 17.2619 178.559 17.7207 178.475 18.1728H166.181C166.16 19.3256 166.447 20.4632 167.012 21.4682C167.5 22.3109 168.224 22.9931 169.094 23.4313C169.967 23.8583 170.928 24.0754 171.9 24.0653ZM157.241 10.549C158.928 10.549 160.299 11.0661 161.354 12.1002C162.41 13.1343 162.936 14.6586 162.934 16.6732V24.8666H161.75V16.7343C161.75 15.048 161.319 13.7575 160.463 12.8725C159.607 11.9875 158.426 11.5402 156.923 11.5402C156.231 11.5109 155.542 11.6282 154.899 11.8844C154.256 12.1407 153.675 12.5301 153.193 13.027C152.253 14.0182 151.783 15.4782 151.783 17.4069V24.8666H150.599V10.8322H151.783V14.5299C152.065 13.3233 152.784 12.2639 153.801 11.5563C154.818 10.8762 156.018 10.5246 157.241 10.549ZM139.397 7.86508C138.017 7.84542 136.657 8.19425 135.458 8.87558C134.283 9.55106 133.324 10.5452 132.69 11.743C131.989 13.083 131.641 14.579 131.676 16.0907C131.642 17.6002 131.991 19.0938 132.69 20.432C133.324 21.6291 134.284 22.623 135.458 23.2993C136.663 23.9602 138.016 24.3066 139.39 24.3066C140.765 24.3066 142.117 23.9602 143.323 23.2993C144.503 22.6263 145.467 21.6319 146.103 20.432C146.803 19.0938 147.152 17.6002 147.117 16.0907C147.152 14.5812 146.803 13.0875 146.103 11.7494C145.468 10.5487 144.503 9.55403 143.323 8.88202C142.127 8.20152 140.772 7.8506 139.397 7.86508ZM139.397 6.80631C141.008 6.78165 142.597 7.18831 143.999 7.98416C145.349 8.75505 146.453 9.89187 147.185 11.2635C147.967 12.7504 148.361 14.4108 148.33 16.0907C148.358 17.764 147.964 19.4174 147.185 20.8986C146.451 22.2734 145.347 23.4158 143.999 24.1972C142.592 24.978 141.009 25.3877 139.4 25.3877C137.791 25.3877 136.208 24.978 134.801 24.1972C133.442 23.416 132.328 22.2715 131.583 20.8922C130.8 19.4147 130.406 17.7624 130.437 16.0907C130.405 14.4091 130.804 12.7473 131.596 11.2635C132.338 9.88518 133.453 8.74409 134.814 7.97128C136.211 7.18297 137.793 6.78087 139.397 6.80631Z" fill="#030303"/>
<path d="M181.802 12.7278L181.48 12.2418H181.216V12.7278H180.895V11.2056H181.59C181.95 11.2056 182.166 11.3954 182.166 11.7076C182.17 11.8102 182.141 11.9116 182.083 11.9964C182.025 12.0811 181.941 12.1447 181.844 12.1774L182.217 12.7213L181.802 12.7278ZM181.802 11.7269C181.802 11.5821 181.702 11.5081 181.538 11.5081H181.216V11.9457H181.554C181.718 11.9457 181.812 11.8589 181.812 11.7301L181.802 11.7269Z" fill="#030303"/>
<path d="M181.459 13.5679C181.15 13.5685 180.847 13.4775 180.59 13.3062C180.333 13.1349 180.133 12.8912 180.014 12.6059C179.895 12.3205 179.864 12.0065 179.924 11.7034C179.984 11.4003 180.133 11.1219 180.352 10.9034C180.57 10.685 180.849 10.5362 181.152 10.4761C181.455 10.416 181.769 10.4472 182.054 10.5657C182.339 10.6842 182.583 10.8848 182.754 11.142C182.926 11.3991 183.017 11.7013 183.016 12.0103C183.015 12.4231 182.851 12.8188 182.559 13.1107C182.267 13.4027 181.871 13.567 181.459 13.5679ZM181.459 10.7906C181.217 10.7906 180.982 10.8622 180.781 10.9962C180.58 11.1302 180.424 11.3207 180.332 11.5436C180.239 11.7664 180.215 12.0117 180.262 12.2483C180.309 12.4849 180.426 12.7022 180.596 12.8728C180.767 13.0433 180.984 13.1595 181.221 13.2066C181.457 13.2536 181.702 13.2295 181.925 13.1371C182.148 13.0448 182.339 12.8885 182.473 12.6879C182.607 12.4874 182.678 12.2515 182.678 12.0103C182.678 11.6868 182.55 11.3766 182.321 11.1479C182.092 10.9191 181.782 10.7906 181.459 10.7906Z" fill="#030303"/>
</g>
<defs>
<clipPath id="clip0_244_23852">
<rect width="182.546" height="30.8556" fill="white" transform="translate(0.472656)"/>
</clipPath>
</defs>
</svg>
